<svg width="378" height="86" viewBox="0 0 378 86" fill="none" xmlns="http://www.w3.org/2000/svg">
<path d="M73.072 70.352C68.08 70.352 63.856 69.712 60.4 68.432C56.944 67.088 54.16 65.04 52.048 62.288C49.936 59.536 48.4 56.048 47.44 51.824C46.48 47.6 46 42.608 46 36.848C46 31.088 46.48 26.096 47.44 21.872C48.4 17.584 49.936 14.032 52.048 11.216C54.224 8.336 57.008 6.224 60.4 4.88C63.856 3.472 68.08 2.768 73.072 2.768C78.064 2.768 82.256 3.472 85.648 4.88C89.104 6.224 91.888 8.336 94 11.216C96.176 14.032 97.744 17.584 98.704 21.872C99.664 26.16 100.144 31.184 100.144 36.944C100.144 51.152 96.784 60.72 90.064 65.648L98.032 78.512L85.936 84.176L77.296 70.064C76.656 70.256 75.248 70.352 73.072 70.352ZM62.512 53.84C64.304 57.168 67.824 58.832 73.072 58.832C75.696 58.832 77.84 58.448 79.504 57.68C81.232 56.848 82.608 55.568 83.632 53.84C84.72 52.112 85.456 49.872 85.84 47.12C86.288 44.304 86.512 40.912 86.512 36.944C86.512 32.976 86.288 29.584 85.84 26.768C85.392 23.888 84.656 21.52 83.632 19.664C82.608 17.808 81.232 16.464 79.504 15.632C77.776 14.736 75.632 14.288 73.072 14.288C70.512 14.288 68.368 14.736 66.64 15.632C64.912 16.464 63.536 17.808 62.512 19.664C61.488 21.52 60.752 23.888 60.304 26.768C59.856 29.584 59.632 32.976 59.632 36.944C59.632 44.816 60.592 50.448 62.512 53.84Z" fill="black"/>
<path d="M138.673 57.104V21.2H151.537V69.2H138.769V66.512C134.225 69.072 130.225 70.352 126.769 70.352C123.441 70.352 120.689 69.904 118.513 69.008C116.337 68.112 114.609 66.704 113.329 64.784C112.049 62.864 111.153 60.4 110.641 57.392C110.129 54.32 109.873 50.64 109.873 46.352V21.2H122.737V46.544C122.737 48.912 122.801 50.896 122.929 52.496C123.121 54.032 123.441 55.28 123.889 56.24C124.401 57.2 125.073 57.872 125.905 58.256C126.801 58.64 127.985 58.832 129.457 58.832C132.209 58.832 134.865 58.384 137.425 57.488L138.673 57.104Z" fill="black"/>
<path d="M176.279 69.2V21.2H163.416V69.2H176.279ZM176.279 15.056V2H163.416V15.056H176.279Z" fill="black"/>
<path d="M201.029 51.344L206.31 50.48L216.006 69.2H230.501L217.35 43.952L229.829 21.2H215.43L205.926 39.344L201.029 40.208V2H188.165V69.2H201.029V51.344Z" fill="black"/>
<path d="M250.436 69.2H237.572V21.2H250.34V26.288C255.844 23.088 260.964 21.008 265.7 20.048V33.008C263.076 33.52 260.644 34.064 258.404 34.64C256.228 35.216 254.212 35.792 252.356 36.368L250.436 37.04V69.2Z" fill="black"/>
<path d="M301.611 57.104V21.2H314.475V69.2H301.707V66.512C297.163 69.072 293.162 70.352 289.706 70.352C286.378 70.352 283.626 69.904 281.451 69.008C279.275 68.112 277.546 66.704 276.266 64.784C274.986 62.864 274.09 60.4 273.579 57.392C273.067 54.32 272.811 50.64 272.811 46.352V21.2H285.674V46.544C285.674 48.912 285.738 50.896 285.867 52.496C286.059 54.032 286.379 55.28 286.827 56.24C287.339 57.2 288.01 57.872 288.842 58.256C289.738 58.64 290.923 58.832 292.395 58.832C295.146 58.832 297.802 58.384 300.362 57.488L301.611 57.104Z" fill="black"/>
<path d="M339.217 69.2V21.2H326.353V69.2H339.217ZM339.217 15.056V2H326.353V15.056H339.217Z" fill="black"/>
<path d="M377.695 21.2V32.144H365.887V51.824C365.887 52.784 365.887 53.616 365.887 54.32C365.951 54.96 366.015 55.472 366.079 55.856C366.207 56.688 366.559 57.392 367.135 57.968C367.711 58.544 368.639 58.832 369.919 58.832L377.215 58.64L377.791 68.912C373.503 69.872 370.239 70.352 367.999 70.352C365.119 70.352 362.719 70.032 360.799 69.392C358.879 68.816 357.343 67.824 356.191 66.416C355.039 65.008 354.207 63.152 353.695 60.848C353.247 58.48 353.023 55.568 353.023 52.112V32.144H347.359V21.2H353.023V7.856H365.887V21.2H377.695Z" fill="black"/>
<path d="M17.6606 -1.57535e-06L3.8938e-06 42.7302L17.6605 47.9999L17.6605 85.1039L35.6804 42.7302L18.6606 37.5L17.6606 -1.57535e-06Z" fill="black"/>
</svg>
