<svg width="909" height="133" viewBox="0 0 909 133" fill="none" xmlns="http://www.w3.org/2000/svg">
<path d="M136.408 98.688C137.752 98.688 139 99.264 140.152 100.416C141.304 101.568 141.88 102.848 141.88 104.256C141.88 106.112 140.792 107.872 138.616 109.536C136.504 111.264 133.88 112.64 130.744 113.664C127.672 114.688 124.92 115.2 122.488 115.2C118.392 115.2 115.128 114.784 112.696 113.952C110.328 113.184 107.928 112.096 105.496 110.688C103.896 109.728 102.584 109.024 101.56 108.576C100.536 108.192 99.32 108 97.912 108C97.144 108 96.504 108.096 95.992 108.288C95.48 108.48 94.808 108.768 93.976 109.152C93.144 109.6 92.376 109.92 91.672 110.112C90.968 110.368 90.072 110.496 88.984 110.496C87.448 110.496 86.104 109.888 84.952 108.672C83.864 107.52 83.32 106.208 83.32 104.736C83.32 102.24 84.44 100.576 86.68 99.744L96.184 96.192C91.192 95.104 86.776 92.96 82.936 89.76C79.096 86.496 76.12 82.496 74.008 77.76C71.896 73.024 70.84 67.904 70.84 62.4C70.84 56.064 72.216 50.272 74.968 45.024C77.784 39.712 81.656 35.52 86.584 32.448C91.576 29.376 97.176 27.84 103.384 27.84C109.592 27.84 115.16 29.376 120.088 32.448C125.08 35.52 128.984 39.712 131.8 45.024C134.616 50.272 136.024 56.064 136.024 62.4C136.024 67.904 134.936 73.024 132.76 77.76C130.648 82.496 127.64 86.496 123.736 89.76C119.896 92.96 115.48 95.104 110.488 96.192L104.632 98.4C106.104 98.592 107.448 98.944 108.664 99.456C109.944 99.968 111.384 100.672 112.984 101.568C114.968 102.656 116.696 103.456 118.168 103.968C119.64 104.48 121.304 104.736 123.16 104.736C124.76 104.736 126.136 104.48 127.288 103.968C128.44 103.52 129.56 102.848 130.648 101.952C131.032 101.632 131.608 101.152 132.376 100.512C133.144 99.936 133.848 99.488 134.488 99.168C135.128 98.848 135.768 98.688 136.408 98.688ZM83.32 62.4C83.32 66.688 84.152 70.592 85.816 74.112C87.544 77.632 89.912 80.416 92.92 82.464C95.992 84.448 99.48 85.44 103.384 85.44C107.224 85.44 110.68 84.416 113.752 82.368C116.824 80.32 119.224 77.568 120.952 74.112C122.68 70.592 123.544 66.688 123.544 62.4C123.544 58.112 122.68 54.24 120.952 50.784C119.224 47.264 116.824 44.48 113.752 42.432C110.68 40.384 107.224 39.36 103.384 39.36C99.48 39.36 95.992 40.384 92.92 42.432C89.912 44.416 87.544 47.168 85.816 50.688C84.152 54.208 83.32 58.112 83.32 62.4ZM183.821 44.64C185.485 44.64 186.861 45.216 187.949 46.368C189.037 47.456 189.581 48.832 189.581 50.496V74.88C189.581 81.792 187.661 87.2 183.821 91.104C180.045 95.008 174.637 96.96 167.597 96.96C160.557 96.96 155.149 95.008 151.373 91.104C147.597 87.2 145.709 81.792 145.709 74.88V50.496C145.709 48.832 146.253 47.456 147.341 46.368C148.429 45.216 149.805 44.64 151.469 44.64C153.133 44.64 154.509 45.216 155.597 46.368C156.685 47.456 157.229 48.832 157.229 50.496V74.88C157.229 78.784 158.093 81.696 159.821 83.616C161.549 85.472 164.141 86.4 167.597 86.4C171.117 86.4 173.741 85.472 175.469 83.616C177.197 81.696 178.061 78.784 178.061 74.88V50.496C178.061 48.832 178.605 47.456 179.693 46.368C180.781 45.216 182.157 44.64 183.821 44.64ZM212.901 90.144C212.901 91.808 212.357 93.216 211.269 94.368C210.181 95.456 208.805 96 207.141 96C205.477 96 204.101 95.456 203.013 94.368C201.925 93.216 201.381 91.808 201.381 90.144V50.496C201.381 48.832 201.925 47.456 203.013 46.368C204.101 45.216 205.477 44.64 207.141 44.64C208.805 44.64 210.181 45.216 211.269 46.368C212.357 47.456 212.901 48.832 212.901 50.496V90.144ZM207.045 38.4C204.869 38.4 203.333 38.048 202.437 37.344C201.541 36.64 201.093 35.392 201.093 33.6V31.776C201.093 29.984 201.573 28.736 202.533 28.032C203.493 27.328 205.029 26.976 207.141 26.976C209.381 26.976 210.949 27.328 211.845 28.032C212.741 28.736 213.189 29.984 213.189 31.776V33.6C213.189 35.456 212.709 36.736 211.749 37.44C210.853 38.08 209.285 38.4 207.045 38.4ZM267.46 85.92C268.676 87.2 269.284 88.64 269.284 90.24C269.284 91.84 268.644 93.184 267.364 94.272C266.148 95.36 264.836 95.904 263.428 95.904C261.764 95.904 260.356 95.264 259.204 93.984L241.924 75.744L237.22 80.064V90.144C237.22 91.808 236.676 93.216 235.588 94.368C234.5 95.456 233.124 96 231.46 96C229.796 96 228.42 95.456 227.332 94.368C226.244 93.216 225.7 91.808 225.7 90.144V30.816C225.7 29.152 226.244 27.776 227.332 26.688C228.42 25.536 229.796 24.96 231.46 24.96C233.124 24.96 234.5 25.536 235.588 26.688C236.676 27.776 237.22 29.152 237.22 30.816V66.336L257.764 46.464C258.98 45.248 260.388 44.64 261.988 44.64C263.396 44.64 264.644 45.248 265.732 46.464C266.884 47.616 267.46 48.8 267.46 50.016C267.46 51.552 266.692 52.992 265.156 54.336L250.66 67.68L267.46 85.92ZM306.084 43.68C308.004 43.68 309.604 44.224 310.884 45.312C312.228 46.4 312.9 47.68 312.9 49.152C312.9 51.136 312.388 52.64 311.364 53.664C310.34 54.624 309.124 55.104 307.716 55.104C306.756 55.104 305.668 54.88 304.452 54.432C304.26 54.368 303.812 54.24 303.108 54.048C302.468 53.856 301.764 53.76 300.996 53.76C299.332 53.76 297.732 54.272 296.196 55.296C294.66 56.32 293.38 57.888 292.356 60C291.396 62.048 290.916 64.512 290.916 67.392V90.144C290.916 91.808 290.372 93.216 289.284 94.368C288.196 95.456 286.82 96 285.156 96C283.492 96 282.116 95.456 281.028 94.368C279.94 93.216 279.396 91.808 279.396 90.144V50.496C279.396 48.832 279.94 47.456 281.028 46.368C282.116 45.216 283.492 44.64 285.156 44.64C286.82 44.64 288.196 45.216 289.284 46.368C290.372 47.456 290.916 48.832 290.916 50.496V51.744C292.388 49.12 294.5 47.136 297.252 45.792C300.004 44.384 302.948 43.68 306.084 43.68ZM359.133 44.64C360.797 44.64 362.173 45.216 363.261 46.368C364.349 47.456 364.893 48.832 364.893 50.496V74.88C364.893 81.792 362.973 87.2 359.133 91.104C355.357 95.008 349.949 96.96 342.909 96.96C335.869 96.96 330.461 95.008 326.685 91.104C322.909 87.2 321.021 81.792 321.021 74.88V50.496C321.021 48.832 321.565 47.456 322.653 46.368C323.741 45.216 325.117 44.64 326.781 44.64C328.445 44.64 329.821 45.216 330.909 46.368C331.997 47.456 332.541 48.832 332.541 50.496V74.88C332.541 78.784 333.405 81.696 335.133 83.616C336.861 85.472 339.453 86.4 342.909 86.4C346.429 86.4 349.053 85.472 350.781 83.616C352.509 81.696 353.373 78.784 353.373 74.88V50.496C353.373 48.832 353.917 47.456 355.005 46.368C356.093 45.216 357.469 44.64 359.133 44.64ZM388.213 90.144C388.213 91.808 387.669 93.216 386.581 94.368C385.493 95.456 384.117 96 382.453 96C380.789 96 379.413 95.456 378.325 94.368C377.237 93.216 376.693 91.808 376.693 90.144V50.496C376.693 48.832 377.237 47.456 378.325 46.368C379.413 45.216 380.789 44.64 382.453 44.64C384.117 44.64 385.493 45.216 386.581 46.368C387.669 47.456 388.213 48.832 388.213 50.496V90.144ZM382.357 38.4C380.181 38.4 378.645 38.048 377.749 37.344C376.853 36.64 376.405 35.392 376.405 33.6V31.776C376.405 29.984 376.885 28.736 377.845 28.032C378.805 27.328 380.341 26.976 382.453 26.976C384.693 26.976 386.261 27.328 387.157 28.032C388.053 28.736 388.501 29.984 388.501 31.776V33.6C388.501 35.456 388.021 36.736 387.061 37.44C386.165 38.08 384.597 38.4 382.357 38.4ZM424.821 85.152C425.717 85.152 426.517 85.6 427.221 86.496C427.989 87.328 428.373 88.448 428.373 89.856C428.373 91.584 427.413 93.056 425.493 94.272C423.637 95.424 421.525 96 419.156 96C415.189 96 411.829 95.168 409.077 93.504C406.389 91.776 405.045 88.16 405.045 82.656V56.16H400.629C399.093 56.16 397.813 55.648 396.789 54.624C395.765 53.6 395.253 52.32 395.253 50.784C395.253 49.312 395.765 48.096 396.789 47.136C397.813 46.112 399.093 45.6 400.629 45.6H405.045V39.456C405.045 37.792 405.589 36.416 406.677 35.328C407.829 34.176 409.237 33.6 410.901 33.6C412.501 33.6 413.845 34.176 414.933 35.328C416.021 36.416 416.565 37.792 416.565 39.456V45.6H423.381C424.917 45.6 426.197 46.112 427.221 47.136C428.245 48.16 428.757 49.44 428.757 50.976C428.757 52.448 428.245 53.696 427.221 54.72C426.197 55.68 424.917 56.16 423.381 56.16H416.565V82.176C416.565 83.52 416.917 84.512 417.621 85.152C418.325 85.728 419.285 86.016 420.501 86.016C421.013 86.016 421.717 85.888 422.613 85.632C423.381 85.312 424.117 85.152 424.821 85.152Z" fill="black"/>
<path d="M498.232 48.096C498.808 48.096 499.256 48.288 499.576 48.672C499.96 49.056 500.152 49.504 500.152 50.016V94.08C500.152 94.592 499.96 95.04 499.576 95.424C499.192 95.808 498.744 96 498.232 96C497.656 96 497.176 95.808 496.792 95.424C496.472 95.04 496.312 94.592 496.312 94.08V85.44C494.712 88.704 492.248 91.456 488.92 93.696C485.592 95.872 481.912 96.96 477.88 96.96C473.656 96.96 469.848 95.872 466.456 93.696C463.064 91.456 460.408 88.416 458.488 84.576C456.568 80.672 455.608 76.32 455.608 71.52C455.608 66.784 456.568 62.528 458.488 58.752C460.472 54.912 463.16 51.936 466.552 49.824C469.944 47.648 473.72 46.56 477.88 46.56C482.04 46.56 485.784 47.648 489.112 49.824C492.44 52 494.84 54.912 496.312 58.56V50.016C496.312 49.504 496.472 49.056 496.792 48.672C497.176 48.288 497.656 48.096 498.232 48.096ZM478.072 93.312C481.592 93.312 484.76 92.384 487.576 90.528C490.456 88.608 492.696 85.984 494.296 82.656C495.896 79.328 496.696 75.616 496.696 71.52C496.696 67.616 495.896 64.032 494.296 60.768C492.696 57.504 490.456 54.944 487.576 53.088C484.76 51.168 481.592 50.208 478.072 50.208C474.552 50.208 471.352 51.136 468.472 52.992C465.656 54.784 463.448 57.312 461.848 60.576C460.248 63.776 459.448 67.424 459.448 71.52C459.448 75.616 460.248 79.328 461.848 82.656C463.448 85.984 465.656 88.608 468.472 90.528C471.288 92.384 474.488 93.312 478.072 93.312ZM538.334 47.52C542.558 47.52 546.366 48.576 549.758 50.688C553.15 52.8 555.806 55.712 557.726 59.424C559.646 63.136 560.606 67.328 560.606 72C560.606 76.608 559.614 80.8 557.63 84.576C555.71 88.288 553.054 91.232 549.662 93.408C546.27 95.52 542.494 96.576 538.334 96.576C534.494 96.576 530.974 95.616 527.774 93.696C524.574 91.776 521.95 89.056 519.902 85.536V113.28C519.902 113.792 519.71 114.24 519.326 114.624C519.006 115.008 518.558 115.2 517.982 115.2C517.47 115.2 517.022 115.008 516.638 114.624C516.254 114.24 516.062 113.792 516.062 113.28V49.44C516.062 48.928 516.222 48.48 516.542 48.096C516.926 47.712 517.406 47.52 517.982 47.52C518.558 47.52 519.006 47.712 519.326 48.096C519.71 48.48 519.902 48.928 519.902 49.44V58.272C521.822 54.624 524.382 51.936 527.582 50.208C530.782 48.416 534.366 47.52 538.334 47.52ZM538.142 92.928C541.662 92.928 544.83 92.032 547.646 90.24C550.462 88.448 552.67 85.952 554.27 82.752C555.934 79.552 556.766 75.968 556.766 72C556.766 68.032 555.934 64.48 554.27 61.344C552.67 58.144 550.462 55.648 547.646 53.856C544.83 52.064 541.662 51.168 538.142 51.168C534.558 51.168 531.326 52.064 528.446 53.856C525.63 55.584 523.422 58.048 521.822 61.248C520.286 64.384 519.518 67.968 519.518 72C519.518 76.032 520.286 79.648 521.822 82.848C523.422 85.984 525.63 88.448 528.446 90.24C531.326 92.032 534.558 92.928 538.142 92.928ZM595.428 47.52C599.652 47.52 603.46 48.576 606.852 50.688C610.244 52.8 612.9 55.712 614.82 59.424C616.74 63.136 617.7 67.328 617.7 72C617.7 76.608 616.708 80.8 614.724 84.576C612.804 88.288 610.148 91.232 606.756 93.408C603.364 95.52 599.588 96.576 595.428 96.576C591.588 96.576 588.068 95.616 584.868 93.696C581.668 91.776 579.044 89.056 576.996 85.536V113.28C576.996 113.792 576.804 114.24 576.42 114.624C576.1 115.008 575.652 115.2 575.076 115.2C574.564 115.2 574.116 115.008 573.732 114.624C573.348 114.24 573.156 113.792 573.156 113.28V49.44C573.156 48.928 573.316 48.48 573.636 48.096C574.02 47.712 574.5 47.52 575.076 47.52C575.652 47.52 576.1 47.712 576.42 48.096C576.804 48.48 576.996 48.928 576.996 49.44V58.272C578.916 54.624 581.476 51.936 584.676 50.208C587.876 48.416 591.46 47.52 595.428 47.52ZM595.236 92.928C598.756 92.928 601.924 92.032 604.74 90.24C607.556 88.448 609.764 85.952 611.364 82.752C613.028 79.552 613.86 75.968 613.86 72C613.86 68.032 613.028 64.48 611.364 61.344C609.764 58.144 607.556 55.648 604.74 53.856C601.924 52.064 598.756 51.168 595.236 51.168C591.652 51.168 588.42 52.064 585.54 53.856C582.724 55.584 580.516 58.048 578.916 61.248C577.38 64.384 576.612 67.968 576.612 72C576.612 76.032 577.38 79.648 578.916 82.848C580.516 85.984 582.724 88.448 585.54 90.24C588.42 92.032 591.652 92.928 595.236 92.928ZM634.569 94.08C634.569 94.592 634.377 95.04 633.993 95.424C633.609 95.808 633.161 96 632.649 96C632.073 96 631.593 95.808 631.209 95.424C630.889 95.04 630.729 94.592 630.729 94.08V26.88C630.729 26.368 630.921 25.92 631.305 25.536C631.689 25.152 632.137 24.96 632.649 24.96C633.225 24.96 633.673 25.152 633.993 25.536C634.377 25.92 634.569 26.368 634.569 26.88V94.08ZM654.808 94.08C654.808 94.592 654.616 95.04 654.232 95.424C653.848 95.808 653.4 96 652.888 96C652.312 96 651.832 95.808 651.448 95.424C651.128 95.04 650.968 94.592 650.968 94.08V48.48C650.968 47.968 651.16 47.52 651.544 47.136C651.928 46.752 652.376 46.56 652.888 46.56C653.464 46.56 653.912 46.752 654.232 47.136C654.616 47.52 654.808 47.968 654.808 48.48V94.08ZM652.888 40.032C651.864 40.032 651.032 39.744 650.392 39.168C649.816 38.592 649.528 37.856 649.528 36.96V36.192C649.528 35.296 649.848 34.56 650.488 33.984C651.128 33.408 651.96 33.12 652.984 33.12C653.88 33.12 654.616 33.408 655.192 33.984C655.832 34.56 656.152 35.296 656.152 36.192V36.96C656.152 37.856 655.832 38.592 655.192 39.168C654.616 39.744 653.848 40.032 652.888 40.032ZM691.581 46.56C694.333 46.56 696.989 46.88 699.549 47.52C702.173 48.16 704.253 49.024 705.789 50.112C707.389 51.136 708.189 52.224 708.189 53.376C708.189 53.888 707.997 54.336 707.613 54.72C707.293 55.104 706.877 55.296 706.365 55.296C705.789 55.296 705.341 55.2 705.021 55.008C704.765 54.816 704.381 54.464 703.869 53.952C703.037 52.992 702.173 52.288 701.277 51.84C698.973 50.752 695.709 50.208 691.485 50.208C687.837 50.208 684.445 51.168 681.309 53.088C678.237 55.008 675.773 57.632 673.917 60.96C672.125 64.224 671.229 67.808 671.229 71.712C671.229 75.808 672.061 79.52 673.725 82.848C675.453 86.112 677.853 88.672 680.925 90.528C684.061 92.384 687.581 93.312 691.485 93.312C694.045 93.312 696.061 93.088 697.533 92.64C699.005 92.192 700.477 91.552 701.949 90.72C702.973 90.08 703.869 89.376 704.637 88.608C704.957 88.288 705.277 88.032 705.597 87.84C705.917 87.584 706.237 87.456 706.557 87.456C707.069 87.456 707.453 87.616 707.709 87.936C708.029 88.256 708.189 88.672 708.189 89.184C708.189 90.08 707.453 91.168 705.981 92.448C704.509 93.664 702.461 94.72 699.837 95.616C697.277 96.512 694.397 96.96 691.197 96.96C686.589 96.96 682.461 95.872 678.813 93.696C675.229 91.52 672.413 88.512 670.365 84.672C668.381 80.832 667.389 76.512 667.389 71.712C667.389 67.232 668.381 63.072 670.365 59.232C672.413 55.392 675.261 52.32 678.909 50.016C682.621 47.712 686.845 46.56 691.581 46.56ZM759.232 48.096C759.808 48.096 760.256 48.288 760.576 48.672C760.96 49.056 761.152 49.504 761.152 50.016V94.08C761.152 94.592 760.96 95.04 760.576 95.424C760.192 95.808 759.744 96 759.232 96C758.656 96 758.176 95.808 757.792 95.424C757.472 95.04 757.312 94.592 757.312 94.08V85.44C755.712 88.704 753.248 91.456 749.92 93.696C746.592 95.872 742.912 96.96 738.88 96.96C734.656 96.96 730.848 95.872 727.456 93.696C724.064 91.456 721.408 88.416 719.488 84.576C717.568 80.672 716.608 76.32 716.608 71.52C716.608 66.784 717.568 62.528 719.488 58.752C721.472 54.912 724.16 51.936 727.552 49.824C730.944 47.648 734.72 46.56 738.88 46.56C743.04 46.56 746.784 47.648 750.112 49.824C753.44 52 755.84 54.912 757.312 58.56V50.016C757.312 49.504 757.472 49.056 757.792 48.672C758.176 48.288 758.656 48.096 759.232 48.096ZM739.072 93.312C742.592 93.312 745.76 92.384 748.576 90.528C751.456 88.608 753.696 85.984 755.296 82.656C756.896 79.328 757.696 75.616 757.696 71.52C757.696 67.616 756.896 64.032 755.296 60.768C753.696 57.504 751.456 54.944 748.576 53.088C745.76 51.168 742.592 50.208 739.072 50.208C735.552 50.208 732.352 51.136 729.472 52.992C726.656 54.784 724.448 57.312 722.848 60.576C721.248 63.776 720.448 67.424 720.448 71.52C720.448 75.616 721.248 79.328 722.848 82.656C724.448 85.984 726.656 88.608 729.472 90.528C732.288 92.384 735.488 93.312 739.072 93.312ZM798.854 46.56C804.55 46.56 808.838 48.256 811.718 51.648C814.598 54.976 816.038 59.328 816.038 64.704V94.08C816.038 94.592 815.846 95.04 815.462 95.424C815.078 95.808 814.63 96 814.118 96C813.542 96 813.062 95.808 812.678 95.424C812.358 95.04 812.198 94.592 812.198 94.08V65.088C812.198 60.736 811.046 57.184 808.742 54.432C806.502 51.616 803.078 50.208 798.47 50.208C795.654 50.208 792.87 50.88 790.118 52.224C787.43 53.568 785.222 55.392 783.494 57.696C781.766 60 780.902 62.464 780.902 65.088V94.08C780.902 94.592 780.71 95.04 780.326 95.424C779.942 95.808 779.494 96 778.982 96C778.406 96 777.926 95.808 777.542 95.424C777.222 95.04 777.062 94.592 777.062 94.08V50.016C777.062 49.504 777.254 49.056 777.638 48.672C778.022 48.288 778.47 48.096 778.982 48.096C779.558 48.096 780.006 48.288 780.326 48.672C780.71 49.056 780.902 49.504 780.902 50.016V56.448C782.758 53.568 785.35 51.2 788.678 49.344C792.07 47.488 795.462 46.56 798.854 46.56ZM849.855 47.712C850.303 47.712 850.719 47.904 851.103 48.288C851.487 48.672 851.679 49.088 851.679 49.536C851.679 50.048 851.487 50.496 851.103 50.88C850.783 51.2 850.367 51.36 849.855 51.36H839.295V85.536C839.295 88.352 839.775 90.24 840.735 91.2C841.759 92.096 843.039 92.544 844.575 92.544C844.831 92.544 845.183 92.48 845.631 92.352C846.143 92.224 846.559 92.16 846.879 92.16C847.327 92.16 847.711 92.352 848.031 92.736C848.351 93.056 848.511 93.44 848.511 93.888C848.511 94.464 848.127 94.976 847.359 95.424C846.591 95.808 845.695 96 844.671 96C843.071 96 841.727 95.904 840.639 95.712C839.551 95.456 838.399 94.592 837.183 93.12C836.031 91.584 835.455 89.12 835.455 85.728V51.36H827.583C827.135 51.36 826.719 51.168 826.335 50.784C825.951 50.4 825.759 49.984 825.759 49.536C825.759 49.024 825.919 48.608 826.239 48.288C826.623 47.904 827.071 47.712 827.583 47.712H835.455V35.52C835.455 35.008 835.647 34.56 836.031 34.176C836.415 33.792 836.863 33.6 837.375 33.6C837.951 33.6 838.399 33.792 838.719 34.176C839.103 34.56 839.295 35.008 839.295 35.52V47.712H849.855ZM861.561 88.32C861.113 87.616 860.889 87.008 860.889 86.496C860.889 86.048 861.145 85.632 861.657 85.248C861.977 84.928 862.361 84.768 862.809 84.768C863.449 84.768 863.961 85.024 864.345 85.536C868.057 90.848 873.241 93.504 879.897 93.504C883.289 93.504 886.265 92.672 888.825 91.008C891.385 89.28 892.665 86.976 892.665 84.096C892.665 81.152 891.545 78.944 889.305 77.472C887.065 76 883.993 74.784 880.089 73.824C874.905 72.544 870.809 70.848 867.801 68.736C864.857 66.56 863.385 63.52 863.385 59.616C863.385 55.84 864.889 52.736 867.897 50.304C870.905 47.808 874.777 46.56 879.513 46.56C882.137 46.56 884.729 47.072 887.289 48.096C889.913 49.12 892.281 50.752 894.393 52.992C894.841 53.376 895.065 53.824 895.065 54.336C895.065 54.912 894.841 55.424 894.393 55.872C893.881 56.128 893.465 56.256 893.145 56.256C892.697 56.256 892.313 56.064 891.993 55.68C888.665 52.032 884.377 50.208 879.129 50.208C875.737 50.208 872.857 51.04 870.489 52.704C868.185 54.368 867.033 56.672 867.033 59.616C867.225 62.368 868.473 64.512 870.777 66.048C873.145 67.52 876.601 68.832 881.145 69.984C884.409 70.816 887.097 71.744 889.209 72.768C891.385 73.728 893.113 75.104 894.393 76.896C895.673 78.688 896.313 81.024 896.313 83.904C896.313 87.936 894.745 91.136 891.609 93.504C888.537 95.808 884.505 96.96 879.513 96.96C872.217 96.96 866.233 94.08 861.561 88.32Z" fill="black"/>
<path d="M27.1046 18.1397C27.0183 14.9003 22.5686 14.0796 21.3325 17.0752L1.26617 65.7018C0.588544 67.3439 1.47827 69.2119 3.18031 69.7206L24.5871 76.1181C25.8576 76.4978 26.7281 77.6665 26.7281 78.9925L26.7281 118.258C26.7281 121.526 31.2123 122.439 32.4895 119.431L52.7001 71.8315C53.3953 70.1942 52.5213 68.315 50.8212 67.7918L30.3007 61.476C29.0701 61.0973 28.2185 59.9756 28.1842 58.6886L27.1046 18.1397Z" fill="black"/>
</svg>
