<svg width="870" height="133" viewBox="0 0 870 133" fill="none" xmlns="http://www.w3.org/2000/svg">
<path d="M136.408 98.688C137.752 98.688 139 99.264 140.152 100.416C141.304 101.568 141.88 102.848 141.88 104.256C141.88 106.112 140.792 107.872 138.616 109.536C136.504 111.264 133.88 112.64 130.744 113.664C127.672 114.688 124.92 115.2 122.488 115.2C118.392 115.2 115.128 114.784 112.696 113.952C110.328 113.184 107.928 112.096 105.496 110.688C103.896 109.728 102.584 109.024 101.56 108.576C100.536 108.192 99.32 108 97.912 108C97.144 108 96.504 108.096 95.992 108.288C95.48 108.48 94.808 108.768 93.976 109.152C93.144 109.6 92.376 109.92 91.672 110.112C90.968 110.368 90.072 110.496 88.984 110.496C87.448 110.496 86.104 109.888 84.952 108.672C83.864 107.52 83.32 106.208 83.32 104.736C83.32 102.24 84.44 100.576 86.68 99.744L96.184 96.192C91.192 95.104 86.776 92.96 82.936 89.76C79.096 86.496 76.12 82.496 74.008 77.76C71.896 73.024 70.84 67.904 70.84 62.4C70.84 56.064 72.216 50.272 74.968 45.024C77.784 39.712 81.656 35.52 86.584 32.448C91.576 29.376 97.176 27.84 103.384 27.84C109.592 27.84 115.16 29.376 120.088 32.448C125.08 35.52 128.984 39.712 131.8 45.024C134.616 50.272 136.024 56.064 136.024 62.4C136.024 67.904 134.936 73.024 132.76 77.76C130.648 82.496 127.64 86.496 123.736 89.76C119.896 92.96 115.48 95.104 110.488 96.192L104.632 98.4C106.104 98.592 107.448 98.944 108.664 99.456C109.944 99.968 111.384 100.672 112.984 101.568C114.968 102.656 116.696 103.456 118.168 103.968C119.64 104.48 121.304 104.736 123.16 104.736C124.76 104.736 126.136 104.48 127.288 103.968C128.44 103.52 129.56 102.848 130.648 101.952C131.032 101.632 131.608 101.152 132.376 100.512C133.144 99.936 133.848 99.488 134.488 99.168C135.128 98.848 135.768 98.688 136.408 98.688ZM83.32 62.4C83.32 66.688 84.152 70.592 85.816 74.112C87.544 77.632 89.912 80.416 92.92 82.464C95.992 84.448 99.48 85.44 103.384 85.44C107.224 85.44 110.68 84.416 113.752 82.368C116.824 80.32 119.224 77.568 120.952 74.112C122.68 70.592 123.544 66.688 123.544 62.4C123.544 58.112 122.68 54.24 120.952 50.784C119.224 47.264 116.824 44.48 113.752 42.432C110.68 40.384 107.224 39.36 103.384 39.36C99.48 39.36 95.992 40.384 92.92 42.432C89.912 44.416 87.544 47.168 85.816 50.688C84.152 54.208 83.32 58.112 83.32 62.4ZM183.821 44.64C185.485 44.64 186.861 45.216 187.949 46.368C189.037 47.456 189.581 48.832 189.581 50.496V74.88C189.581 81.792 187.661 87.2 183.821 91.104C180.045 95.008 174.637 96.96 167.597 96.96C160.557 96.96 155.149 95.008 151.373 91.104C147.597 87.2 145.709 81.792 145.709 74.88V50.496C145.709 48.832 146.253 47.456 147.341 46.368C148.429 45.216 149.805 44.64 151.469 44.64C153.133 44.64 154.509 45.216 155.597 46.368C156.685 47.456 157.229 48.832 157.229 50.496V74.88C157.229 78.784 158.093 81.696 159.821 83.616C161.549 85.472 164.141 86.4 167.597 86.4C171.117 86.4 173.741 85.472 175.469 83.616C177.197 81.696 178.061 78.784 178.061 74.88V50.496C178.061 48.832 178.605 47.456 179.693 46.368C180.781 45.216 182.157 44.64 183.821 44.64ZM212.901 90.144C212.901 91.808 212.357 93.216 211.269 94.368C210.181 95.456 208.805 96 207.141 96C205.477 96 204.101 95.456 203.013 94.368C201.925 93.216 201.381 91.808 201.381 90.144V50.496C201.381 48.832 201.925 47.456 203.013 46.368C204.101 45.216 205.477 44.64 207.141 44.64C208.805 44.64 210.181 45.216 211.269 46.368C212.357 47.456 212.901 48.832 212.901 50.496V90.144ZM207.045 38.4C204.869 38.4 203.333 38.048 202.437 37.344C201.541 36.64 201.093 35.392 201.093 33.6V31.776C201.093 29.984 201.573 28.736 202.533 28.032C203.493 27.328 205.029 26.976 207.141 26.976C209.381 26.976 210.949 27.328 211.845 28.032C212.741 28.736 213.189 29.984 213.189 31.776V33.6C213.189 35.456 212.709 36.736 211.749 37.44C210.853 38.08 209.285 38.4 207.045 38.4ZM267.46 85.92C268.676 87.2 269.284 88.64 269.284 90.24C269.284 91.84 268.644 93.184 267.364 94.272C266.148 95.36 264.836 95.904 263.428 95.904C261.764 95.904 260.356 95.264 259.204 93.984L241.924 75.744L237.22 80.064V90.144C237.22 91.808 236.676 93.216 235.588 94.368C234.5 95.456 233.124 96 231.46 96C229.796 96 228.42 95.456 227.332 94.368C226.244 93.216 225.7 91.808 225.7 90.144V30.816C225.7 29.152 226.244 27.776 227.332 26.688C228.42 25.536 229.796 24.96 231.46 24.96C233.124 24.96 234.5 25.536 235.588 26.688C236.676 27.776 237.22 29.152 237.22 30.816V66.336L257.764 46.464C258.98 45.248 260.388 44.64 261.988 44.64C263.396 44.64 264.644 45.248 265.732 46.464C266.884 47.616 267.46 48.8 267.46 50.016C267.46 51.552 266.692 52.992 265.156 54.336L250.66 67.68L267.46 85.92ZM306.084 43.68C308.004 43.68 309.604 44.224 310.884 45.312C312.228 46.4 312.9 47.68 312.9 49.152C312.9 51.136 312.388 52.64 311.364 53.664C310.34 54.624 309.124 55.104 307.716 55.104C306.756 55.104 305.668 54.88 304.452 54.432C304.26 54.368 303.812 54.24 303.108 54.048C302.468 53.856 301.764 53.76 300.996 53.76C299.332 53.76 297.732 54.272 296.196 55.296C294.66 56.32 293.38 57.888 292.356 60C291.396 62.048 290.916 64.512 290.916 67.392V90.144C290.916 91.808 290.372 93.216 289.284 94.368C288.196 95.456 286.82 96 285.156 96C283.492 96 282.116 95.456 281.028 94.368C279.94 93.216 279.396 91.808 279.396 90.144V50.496C279.396 48.832 279.94 47.456 281.028 46.368C282.116 45.216 283.492 44.64 285.156 44.64C286.82 44.64 288.196 45.216 289.284 46.368C290.372 47.456 290.916 48.832 290.916 50.496V51.744C292.388 49.12 294.5 47.136 297.252 45.792C300.004 44.384 302.948 43.68 306.084 43.68ZM359.133 44.64C360.797 44.64 362.173 45.216 363.261 46.368C364.349 47.456 364.893 48.832 364.893 50.496V74.88C364.893 81.792 362.973 87.2 359.133 91.104C355.357 95.008 349.949 96.96 342.909 96.96C335.869 96.96 330.461 95.008 326.685 91.104C322.909 87.2 321.021 81.792 321.021 74.88V50.496C321.021 48.832 321.565 47.456 322.653 46.368C323.741 45.216 325.117 44.64 326.781 44.64C328.445 44.64 329.821 45.216 330.909 46.368C331.997 47.456 332.541 48.832 332.541 50.496V74.88C332.541 78.784 333.405 81.696 335.133 83.616C336.861 85.472 339.453 86.4 342.909 86.4C346.429 86.4 349.053 85.472 350.781 83.616C352.509 81.696 353.373 78.784 353.373 74.88V50.496C353.373 48.832 353.917 47.456 355.005 46.368C356.093 45.216 357.469 44.64 359.133 44.64ZM388.213 90.144C388.213 91.808 387.669 93.216 386.581 94.368C385.493 95.456 384.117 96 382.453 96C380.789 96 379.413 95.456 378.325 94.368C377.237 93.216 376.693 91.808 376.693 90.144V50.496C376.693 48.832 377.237 47.456 378.325 46.368C379.413 45.216 380.789 44.64 382.453 44.64C384.117 44.64 385.493 45.216 386.581 46.368C387.669 47.456 388.213 48.832 388.213 50.496V90.144ZM382.357 38.4C380.181 38.4 378.645 38.048 377.749 37.344C376.853 36.64 376.405 35.392 376.405 33.6V31.776C376.405 29.984 376.885 28.736 377.845 28.032C378.805 27.328 380.341 26.976 382.453 26.976C384.693 26.976 386.261 27.328 387.157 28.032C388.053 28.736 388.501 29.984 388.501 31.776V33.6C388.501 35.456 388.021 36.736 387.061 37.44C386.165 38.08 384.597 38.4 382.357 38.4ZM424.821 85.152C425.717 85.152 426.517 85.6 427.221 86.496C427.989 87.328 428.373 88.448 428.373 89.856C428.373 91.584 427.413 93.056 425.493 94.272C423.637 95.424 421.525 96 419.156 96C415.189 96 411.829 95.168 409.077 93.504C406.389 91.776 405.045 88.16 405.045 82.656V56.16H400.629C399.093 56.16 397.813 55.648 396.789 54.624C395.765 53.6 395.253 52.32 395.253 50.784C395.253 49.312 395.765 48.096 396.789 47.136C397.813 46.112 399.093 45.6 400.629 45.6H405.045V39.456C405.045 37.792 405.589 36.416 406.677 35.328C407.829 34.176 409.237 33.6 410.901 33.6C412.501 33.6 413.845 34.176 414.933 35.328C416.021 36.416 416.565 37.792 416.565 39.456V45.6H423.381C424.917 45.6 426.197 46.112 427.221 47.136C428.245 48.16 428.757 49.44 428.757 50.976C428.757 52.448 428.245 53.696 427.221 54.72C426.197 55.68 424.917 56.16 423.381 56.16H416.565V82.176C416.565 83.52 416.917 84.512 417.621 85.152C418.325 85.728 419.285 86.016 420.501 86.016C421.013 86.016 421.717 85.888 422.613 85.632C423.381 85.312 424.117 85.152 424.821 85.152Z" fill="black"/>
<path d="M480.664 46.56C483.608 46.56 485.08 47.296 485.08 48.768C485.08 49.344 484.92 49.824 484.6 50.208C484.28 50.592 483.864 50.784 483.352 50.784C483.16 50.784 482.68 50.656 481.912 50.4C481.208 50.08 480.44 49.92 479.608 49.92C476.984 49.92 474.36 50.976 471.736 53.088C469.112 55.136 466.968 57.76 465.304 60.96C463.64 64.096 462.808 67.136 462.808 70.08V94.08C462.808 94.592 462.616 95.04 462.232 95.424C461.848 95.808 461.4 96 460.888 96C460.312 96 459.832 95.808 459.448 95.424C459.128 95.04 458.968 94.592 458.968 94.08V50.016C458.968 49.504 459.16 49.056 459.544 48.672C459.928 48.288 460.376 48.096 460.888 48.096C461.464 48.096 461.912 48.288 462.232 48.672C462.616 49.056 462.808 49.504 462.808 50.016V60.192C464.28 56.288 466.552 53.056 469.624 50.496C472.76 47.936 476.44 46.624 480.664 46.56ZM530.076 84.48C530.524 84.48 530.908 84.672 531.228 85.056C531.548 85.376 531.708 85.76 531.708 86.208C531.708 86.656 531.58 87.04 531.324 87.36C529.212 90.176 526.588 92.48 523.452 94.272C520.316 96.064 516.956 96.96 513.372 96.96C508.572 96.96 504.316 95.936 500.604 93.888C496.892 91.84 493.98 88.928 491.868 85.152C489.82 81.376 488.796 76.992 488.796 72C488.796 66.88 489.788 62.4 491.772 58.56C493.82 54.656 496.508 51.68 499.836 49.632C503.164 47.584 506.716 46.56 510.492 46.56C514.268 46.56 517.756 47.392 520.956 49.056C524.22 50.656 526.876 53.088 528.924 56.352C530.972 59.616 532.06 63.648 532.188 68.448C532.188 68.96 531.996 69.44 531.612 69.888C531.228 70.272 530.78 70.464 530.268 70.464H492.54V71.712C492.54 75.68 493.34 79.328 494.94 82.656C496.54 85.92 498.908 88.512 502.044 90.432C505.18 92.352 508.956 93.312 513.372 93.312C516.444 93.312 519.324 92.576 522.012 91.104C524.764 89.568 526.908 87.648 528.444 85.344C528.892 84.768 529.436 84.48 530.076 84.48ZM510.492 50.4C508.124 50.4 505.692 51.04 503.196 52.32C500.764 53.536 498.588 55.392 496.668 57.888C494.812 60.32 493.564 63.296 492.924 66.816H528.252V65.952C527.932 62.688 526.876 59.904 525.084 57.6C523.356 55.232 521.18 53.44 518.556 52.224C515.996 51.008 513.308 50.4 510.492 50.4ZM565.581 46.56C568.333 46.56 570.989 46.88 573.549 47.52C576.173 48.16 578.253 49.024 579.789 50.112C581.389 51.136 582.189 52.224 582.189 53.376C582.189 53.888 581.997 54.336 581.613 54.72C581.293 55.104 580.877 55.296 580.365 55.296C579.789 55.296 579.341 55.2 579.021 55.008C578.765 54.816 578.381 54.464 577.869 53.952C577.037 52.992 576.173 52.288 575.277 51.84C572.973 50.752 569.709 50.208 565.485 50.208C561.837 50.208 558.445 51.168 555.309 53.088C552.237 55.008 549.773 57.632 547.917 60.96C546.125 64.224 545.229 67.808 545.229 71.712C545.229 75.808 546.061 79.52 547.725 82.848C549.453 86.112 551.853 88.672 554.925 90.528C558.061 92.384 561.581 93.312 565.485 93.312C568.045 93.312 570.061 93.088 571.533 92.64C573.005 92.192 574.477 91.552 575.949 90.72C576.973 90.08 577.869 89.376 578.637 88.608C578.957 88.288 579.277 88.032 579.597 87.84C579.917 87.584 580.237 87.456 580.557 87.456C581.069 87.456 581.453 87.616 581.709 87.936C582.029 88.256 582.189 88.672 582.189 89.184C582.189 90.08 581.453 91.168 579.981 92.448C578.509 93.664 576.461 94.72 573.837 95.616C571.277 96.512 568.397 96.96 565.197 96.96C560.589 96.96 556.461 95.872 552.813 93.696C549.229 91.52 546.413 88.512 544.365 84.672C542.381 80.832 541.389 76.512 541.389 71.712C541.389 67.232 542.381 63.072 544.365 59.232C546.413 55.392 549.261 52.32 552.909 50.016C556.621 47.712 560.845 46.56 565.581 46.56ZM615.664 46.56C618.608 46.56 620.08 47.296 620.08 48.768C620.08 49.344 619.92 49.824 619.6 50.208C619.28 50.592 618.864 50.784 618.352 50.784C618.16 50.784 617.68 50.656 616.912 50.4C616.208 50.08 615.44 49.92 614.608 49.92C611.984 49.92 609.36 50.976 606.736 53.088C604.112 55.136 601.968 57.76 600.304 60.96C598.64 64.096 597.808 67.136 597.808 70.08V94.08C597.808 94.592 597.616 95.04 597.232 95.424C596.848 95.808 596.4 96 595.888 96C595.312 96 594.832 95.808 594.448 95.424C594.128 95.04 593.968 94.592 593.968 94.08V50.016C593.968 49.504 594.16 49.056 594.544 48.672C594.928 48.288 595.376 48.096 595.888 48.096C596.464 48.096 596.912 48.288 597.232 48.672C597.616 49.056 597.808 49.504 597.808 50.016V60.192C599.28 56.288 601.552 53.056 604.624 50.496C607.76 47.936 611.44 46.624 615.664 46.56ZM665.504 48.096C666.08 48.096 666.528 48.288 666.848 48.672C667.232 49.056 667.424 49.504 667.424 50.016V77.952C667.424 84.032 665.696 88.672 662.24 91.872C658.848 95.008 654.208 96.576 648.32 96.576C642.432 96.576 637.792 95.008 634.4 91.872C631.008 88.672 629.312 84.032 629.312 77.952V50.016C629.312 49.504 629.504 49.056 629.888 48.672C630.272 48.288 630.72 48.096 631.232 48.096C631.808 48.096 632.256 48.288 632.576 48.672C632.96 49.056 633.152 49.504 633.152 50.016V77.952C633.152 82.752 634.496 86.464 637.184 89.088C639.872 91.648 643.584 92.928 648.32 92.928C653.12 92.928 656.864 91.648 659.552 89.088C662.24 86.464 663.584 82.752 663.584 77.952V50.016C663.584 49.504 663.744 49.056 664.064 48.672C664.448 48.288 664.928 48.096 665.504 48.096ZM687.246 94.08C687.246 94.592 687.054 95.04 686.67 95.424C686.286 95.808 685.838 96 685.326 96C684.75 96 684.27 95.808 683.886 95.424C683.566 95.04 683.406 94.592 683.406 94.08V48.48C683.406 47.968 683.598 47.52 683.982 47.136C684.366 46.752 684.814 46.56 685.326 46.56C685.902 46.56 686.35 46.752 686.67 47.136C687.054 47.52 687.246 47.968 687.246 48.48V94.08ZM685.326 40.032C684.302 40.032 683.47 39.744 682.83 39.168C682.254 38.592 681.966 37.856 681.966 36.96V36.192C681.966 35.296 682.286 34.56 682.926 33.984C683.566 33.408 684.398 33.12 685.422 33.12C686.318 33.12 687.054 33.408 687.63 33.984C688.27 34.56 688.59 35.296 688.59 36.192V36.96C688.59 37.856 688.27 38.592 687.63 39.168C687.054 39.744 686.286 40.032 685.326 40.032ZM721.043 47.712C721.491 47.712 721.907 47.904 722.291 48.288C722.675 48.672 722.867 49.088 722.867 49.536C722.867 50.048 722.675 50.496 722.291 50.88C721.971 51.2 721.555 51.36 721.043 51.36H710.483V85.536C710.483 88.352 710.963 90.24 711.923 91.2C712.947 92.096 714.227 92.544 715.763 92.544C716.019 92.544 716.371 92.48 716.819 92.352C717.331 92.224 717.747 92.16 718.067 92.16C718.515 92.16 718.899 92.352 719.219 92.736C719.539 93.056 719.699 93.44 719.699 93.888C719.699 94.464 719.315 94.976 718.547 95.424C717.779 95.808 716.883 96 715.859 96C714.259 96 712.915 95.904 711.827 95.712C710.739 95.456 709.587 94.592 708.371 93.12C707.219 91.584 706.643 89.12 706.643 85.728V51.36H698.771C698.323 51.36 697.907 51.168 697.523 50.784C697.139 50.4 696.947 49.984 696.947 49.536C696.947 49.024 697.107 48.608 697.427 48.288C697.811 47.904 698.259 47.712 698.771 47.712H706.643V35.52C706.643 35.008 706.835 34.56 707.219 34.176C707.603 33.792 708.051 33.6 708.563 33.6C709.139 33.6 709.587 33.792 709.907 34.176C710.291 34.56 710.483 35.008 710.483 35.52V47.712H721.043ZM771.013 84.48C771.461 84.48 771.845 84.672 772.165 85.056C772.485 85.376 772.645 85.76 772.645 86.208C772.645 86.656 772.517 87.04 772.261 87.36C770.149 90.176 767.525 92.48 764.389 94.272C761.253 96.064 757.893 96.96 754.309 96.96C749.509 96.96 745.253 95.936 741.541 93.888C737.829 91.84 734.917 88.928 732.805 85.152C730.757 81.376 729.733 76.992 729.733 72C729.733 66.88 730.725 62.4 732.709 58.56C734.757 54.656 737.445 51.68 740.773 49.632C744.101 47.584 747.653 46.56 751.429 46.56C755.205 46.56 758.693 47.392 761.893 49.056C765.157 50.656 767.813 53.088 769.861 56.352C771.909 59.616 772.997 63.648 773.125 68.448C773.125 68.96 772.933 69.44 772.549 69.888C772.165 70.272 771.717 70.464 771.205 70.464H733.477V71.712C733.477 75.68 734.277 79.328 735.877 82.656C737.477 85.92 739.845 88.512 742.981 90.432C746.117 92.352 749.893 93.312 754.309 93.312C757.381 93.312 760.261 92.576 762.949 91.104C765.701 89.568 767.845 87.648 769.381 85.344C769.829 84.768 770.373 84.48 771.013 84.48ZM751.429 50.4C749.061 50.4 746.629 51.04 744.133 52.32C741.701 53.536 739.525 55.392 737.605 57.888C735.749 60.32 734.501 63.296 733.861 66.816H769.189V65.952C768.869 62.688 767.813 59.904 766.021 57.6C764.293 55.232 762.117 53.44 759.493 52.224C756.933 51.008 754.245 50.4 751.429 50.4ZM807.383 46.56C810.327 46.56 811.799 47.296 811.799 48.768C811.799 49.344 811.639 49.824 811.319 50.208C810.999 50.592 810.583 50.784 810.071 50.784C809.879 50.784 809.399 50.656 808.631 50.4C807.927 50.08 807.159 49.92 806.327 49.92C803.703 49.92 801.079 50.976 798.455 53.088C795.831 55.136 793.687 57.76 792.023 60.96C790.359 64.096 789.527 67.136 789.527 70.08V94.08C789.527 94.592 789.335 95.04 788.951 95.424C788.567 95.808 788.119 96 787.607 96C787.031 96 786.551 95.808 786.167 95.424C785.847 95.04 785.687 94.592 785.687 94.08V50.016C785.687 49.504 785.879 49.056 786.263 48.672C786.647 48.288 787.095 48.096 787.607 48.096C788.183 48.096 788.631 48.288 788.951 48.672C789.335 49.056 789.527 49.504 789.527 50.016V60.192C790.999 56.288 793.271 53.056 796.343 50.496C799.479 47.936 803.159 46.624 807.383 46.56ZM818.343 88.32C817.895 87.616 817.671 87.008 817.671 86.496C817.671 86.048 817.927 85.632 818.439 85.248C818.759 84.928 819.143 84.768 819.591 84.768C820.231 84.768 820.743 85.024 821.127 85.536C824.839 90.848 830.023 93.504 836.679 93.504C840.071 93.504 843.047 92.672 845.607 91.008C848.167 89.28 849.447 86.976 849.447 84.096C849.447 81.152 848.327 78.944 846.087 77.472C843.847 76 840.775 74.784 836.871 73.824C831.687 72.544 827.591 70.848 824.583 68.736C821.639 66.56 820.167 63.52 820.167 59.616C820.167 55.84 821.671 52.736 824.679 50.304C827.687 47.808 831.559 46.56 836.295 46.56C838.919 46.56 841.511 47.072 844.071 48.096C846.695 49.12 849.063 50.752 851.175 52.992C851.623 53.376 851.847 53.824 851.847 54.336C851.847 54.912 851.623 55.424 851.175 55.872C850.663 56.128 850.247 56.256 849.927 56.256C849.479 56.256 849.095 56.064 848.775 55.68C845.447 52.032 841.159 50.208 835.911 50.208C832.519 50.208 829.639 51.04 827.271 52.704C824.967 54.368 823.815 56.672 823.815 59.616C824.007 62.368 825.255 64.512 827.559 66.048C829.927 67.52 833.383 68.832 837.927 69.984C841.191 70.816 843.879 71.744 845.991 72.768C848.167 73.728 849.895 75.104 851.175 76.896C852.455 78.688 853.095 81.024 853.095 83.904C853.095 87.936 851.527 91.136 848.391 93.504C845.319 95.808 841.287 96.96 836.295 96.96C828.999 96.96 823.015 94.08 818.343 88.32Z" fill="black"/>
<path d="M27.1046 18.1397C27.0183 14.9003 22.5686 14.0796 21.3325 17.0752L1.26617 65.7018C0.588544 67.3439 1.47827 69.2119 3.18031 69.7206L24.5871 76.1181C25.8576 76.4978 26.7281 77.6665 26.7281 78.9925L26.7281 118.258C26.7281 121.526 31.2123 122.439 32.4895 119.431L52.7001 71.8315C53.3953 70.1942 52.5213 68.315 50.8212 67.7918L30.3007 61.476C29.0701 61.0973 28.2185 59.9756 28.1842 58.6886L27.1046 18.1397Z" fill="black"/>
</svg>
